<svg width="1069" height="200" viewBox="0 0 1069 200" fill="none" xmlns="http://www.w3.org/2000/svg">
<path d="M77.45 105.4V79.4H148.25C148.917 90.6 147.783 101.067 144.85 110.8C141.917 120.533 137.383 129.133 131.25 136.6C125.117 144.067 117.45 149.933 108.25 154.2C99.05 158.333 88.5167 160.4 76.65 160.4C65.45 160.4 55.1833 158.667 45.85 155.2C36.5167 151.6 28.45 146.533 21.65 140C14.85 133.333 9.51667 125.467 5.65 116.4C1.91667 107.2 0.0500004 97.0667 0.0500004 86C0.0500004 74.9333 1.98333 64.9333 5.85 56C9.71667 46.9333 15.1833 39.2 22.25 32.8C29.3167 26.4 37.5833 21.4667 47.05 18C56.5167 14.5333 66.7833 12.8 77.85 12.8C87.7167 12.8 96.5833 14.2 104.45 17C112.317 19.8 119.25 23.7333 125.25 28.8C131.383 33.7333 136.65 39.4667 141.05 46L111.05 61.6C107.85 56 103.517 51.4 98.05 47.8C92.7167 44.0667 85.9833 42.2 77.85 42.2C70.1167 42.2 62.9833 43.9333 56.45 47.4C50.05 50.8667 44.9167 55.8667 41.05 62.4C37.3167 68.8 35.45 76.6667 35.45 86C35.45 95.2 37.25 103.2 40.85 110C44.5833 116.667 49.5833 121.867 55.85 125.6C62.25 129.2 69.5833 131 77.85 131C82.9167 131 87.5167 130.4 91.65 129.2C95.7833 127.867 99.3167 126.067 102.25 123.8C105.183 121.4 107.65 118.667 109.65 115.6C111.783 112.4 113.45 109 114.65 105.4H77.45ZM162.541 110C162.541 100.267 164.807 91.8 169.341 84.6C173.874 77.4 180.141 71.8 188.141 67.8C196.141 63.8 205.141 61.8 215.141 61.8C225.141 61.8 234.074 63.8 241.941 67.8C249.941 71.8 256.207 77.4 260.741 84.6C265.407 91.8 267.741 100.267 267.741 110C267.741 119.6 265.407 128 260.741 135.2C256.207 142.4 249.941 148 241.941 152C234.074 156 225.141 158 215.141 158C205.141 158 196.141 156 188.141 152C180.141 148 173.874 142.4 169.341 135.2C164.807 128 162.541 119.6 162.541 110ZM193.541 110C193.541 114.8 194.541 118.933 196.541 122.4C198.541 125.733 201.141 128.333 204.341 130.2C207.541 132.067 211.141 133 215.141 133C219.007 133 222.541 132.067 225.741 130.2C229.074 128.333 231.674 125.733 233.541 122.4C235.541 118.933 236.541 114.8 236.541 110C236.541 105.2 235.541 101.067 233.541 97.6C231.674 94.1333 229.074 91.4667 225.741 89.6C222.541 87.7333 219.007 86.8 215.141 86.8C211.141 86.8 207.541 87.7333 204.341 89.6C201.141 91.4667 198.541 94.1333 196.541 97.6C194.541 101.067 193.541 105.2 193.541 110ZM280.509 110C280.509 100.267 282.776 91.8 287.309 84.6C291.843 77.4 298.109 71.8 306.109 67.8C314.109 63.8 323.109 61.8 333.109 61.8C343.109 61.8 352.043 63.8 359.909 67.8C367.909 71.8 374.176 77.4 378.709 84.6C383.376 91.8 385.709 100.267 385.709 110C385.709 119.6 383.376 128 378.709 135.2C374.176 142.4 367.909 148 359.909 152C352.043 156 343.109 158 333.109 158C323.109 158 314.109 156 306.109 152C298.109 148 291.843 142.4 287.309 135.2C282.776 128 280.509 119.6 280.509 110ZM311.509 110C311.509 114.8 312.509 118.933 314.509 122.4C316.509 125.733 319.109 128.333 322.309 130.2C325.509 132.067 329.109 133 333.109 133C336.976 133 340.509 132.067 343.709 130.2C347.043 128.333 349.643 125.733 351.509 122.4C353.509 118.933 354.509 114.8 354.509 110C354.509 105.2 353.509 101.067 351.509 97.6C349.643 94.1333 347.043 91.4667 343.709 89.6C340.509 87.7333 336.976 86.8 333.109 86.8C329.109 86.8 325.509 87.7333 322.309 89.6C319.109 91.4667 316.509 94.1333 314.509 97.6C312.509 101.067 311.509 105.2 311.509 110ZM473.678 -6.19888e-06H503.878V156H473.678V-6.19888e-06ZM398.478 110C398.478 99.6 400.545 90.8667 404.678 83.8C408.945 76.7333 414.411 71.3333 421.078 67.6C427.745 63.8667 434.811 62 442.278 62C450.011 62 456.811 63.9333 462.678 67.8C468.678 71.6667 473.411 77.2 476.878 84.4C480.345 91.4667 482.078 100 482.078 110C482.078 119.867 480.345 128.4 476.878 135.6C473.411 142.8 468.678 148.333 462.678 152.2C456.811 156.067 450.011 158 442.278 158C434.811 158 427.745 156.133 421.078 152.4C414.411 148.667 408.945 143.267 404.678 136.2C400.545 129 398.478 120.267 398.478 110ZM430.278 110C430.278 114.8 431.278 119 433.278 122.6C435.278 126.067 437.945 128.8 441.278 130.8C444.611 132.667 448.278 133.6 452.278 133.6C455.745 133.6 459.078 132.667 462.278 130.8C465.611 128.933 468.345 126.267 470.478 122.8C472.611 119.2 473.678 114.933 473.678 110C473.678 105.067 472.611 100.867 470.478 97.4C468.345 93.8 465.611 91.0667 462.278 89.2C459.078 87.3333 455.745 86.4 452.278 86.4C448.278 86.4 444.611 87.4 441.278 89.4C437.945 91.2667 435.278 94 433.278 97.6C431.278 101.067 430.278 105.2 430.278 110ZM532.316 122.6C536.982 126.467 541.182 129.533 544.916 131.8C548.782 133.933 552.182 135.467 555.116 136.4C558.049 137.2 560.582 137.6 562.716 137.6C565.782 137.6 568.049 136.933 569.516 135.6C570.982 134.267 571.716 132.533 571.716 130.4C571.716 128.4 571.116 126.733 569.916 125.4C568.716 123.933 566.649 122.533 563.716 121.2C560.916 119.867 557.049 118.467 552.116 117C547.716 115.4 543.516 113.533 539.516 111.4C535.649 109.133 532.449 106.133 529.916 102.4C527.382 98.6667 526.116 93.8667 526.116 88C526.116 82.4 527.582 77.6667 530.516 73.8C533.582 69.9333 537.649 67 542.716 65C547.916 63 553.849 62 560.516 62C565.849 62 570.782 62.6 575.316 63.8C579.982 65 584.316 66.6 588.316 68.6C592.449 70.6 596.316 72.9333 599.916 75.6L589.116 95.2C585.249 91.6 580.849 88.6667 575.916 86.4C570.982 84 566.449 82.8 562.316 82.8C559.516 82.8 557.382 83.3333 555.916 84.4C554.582 85.4667 553.916 86.8667 553.916 88.6C553.916 90.6 554.716 92.2667 556.316 93.6C558.049 94.9333 560.449 96.2 563.516 97.4C566.716 98.4667 570.582 99.8667 575.116 101.6C579.916 103.333 584.316 105.333 588.316 107.6C592.449 109.867 595.716 112.733 598.116 116.2C600.649 119.667 601.916 124.267 601.916 130C601.916 139.867 598.849 147.333 592.716 152.4C586.716 157.333 578.249 159.8 567.316 159.8C560.649 159.8 554.449 159 548.716 157.4C543.116 155.933 537.916 153.933 533.116 151.4C528.316 148.733 523.849 145.8 519.716 142.6L532.316 122.6ZM609.527 131.2L690.727 16H715.927V156H680.727V120.8L684.527 118.6V65L654.327 106.8H705.927L709.327 102.4H737.927V131.2H609.527ZM852.375 64L792.375 200H761.975L784.375 148.6L744.575 64H777.775L807.575 137.8L791.975 137.6L821.375 64H852.375ZM854.142 110C854.142 100.267 856.409 91.8 860.942 84.6C865.476 77.4 871.742 71.8 879.742 67.8C887.742 63.8 896.742 61.8 906.742 61.8C916.742 61.8 925.676 63.8 933.542 67.8C941.542 71.8 947.809 77.4 952.342 84.6C957.009 91.8 959.342 100.267 959.342 110C959.342 119.6 957.009 128 952.342 135.2C947.809 142.4 941.542 148 933.542 152C925.676 156 916.742 158 906.742 158C896.742 158 887.742 156 879.742 152C871.742 148 865.476 142.4 860.942 135.2C856.409 128 854.142 119.6 854.142 110ZM885.142 110C885.142 114.8 886.142 118.933 888.142 122.4C890.142 125.733 892.742 128.333 895.942 130.2C899.142 132.067 902.742 133 906.742 133C910.609 133 914.142 132.067 917.342 130.2C920.676 128.333 923.276 125.733 925.142 122.4C927.142 118.933 928.142 114.8 928.142 110C928.142 105.2 927.142 101.067 925.142 97.6C923.276 94.1333 920.676 91.4667 917.342 89.6C914.142 87.7333 910.609 86.8 906.742 86.8C902.742 86.8 899.142 87.7333 895.942 89.6C892.742 91.4667 890.142 94.1333 888.142 97.6C886.142 101.067 885.142 105.2 885.142 110ZM1009.11 120C1009.11 125.333 1010.11 129.533 1012.11 132.6C1014.11 135.533 1017.58 137 1022.51 137C1025.84 137 1028.64 136.333 1030.91 135C1033.31 133.667 1035.18 131.733 1036.51 129.2C1037.84 126.667 1038.51 123.6 1038.51 120V64H1068.71V156H1038.51V142.2C1035.71 147.133 1032.04 151.067 1027.51 154C1022.98 156.8 1017.31 158.2 1010.51 158.2C999.044 158.2 990.644 155.133 985.311 149C980.111 142.733 977.511 134.133 977.511 123.2V64H1009.11V120Z" fill="white" fill-opacity="0.12"/>
</svg>
