<svg fill="none" xmlns="http://www.w3.org/2000/svg">
<path id="cart" d="M20 7.14286H16.6038L13.0359 0.34668C12.8589 0.00908289 12.475 -0.101141 12.1784 0.10185C11.8823 0.304841 11.7865 0.743572 11.9641 1.08189L15.1461 7.14286H4.85388L8.03587 1.08184C8.21348 0.743524 8.11767 0.304793 7.82164 0.101802C7.52439 -0.101189 7.14173 0.00903482 6.96411 0.346631L3.39617 7.14281H0V8.57139H1.35651L2.94432 18.2512C3.11033 19.2648 3.88547 20 4.78761 20H15.2124C16.1145 20 16.8896 19.2648 17.055 18.252L18.6434 8.57139H20C20 8.57139 20 7.14286 20 7.14286ZM15.8264 17.989C15.7715 18.3266 15.5133 18.5715 15.2124 18.5715H4.78761C4.4867 18.5715 4.22854 18.3266 4.173 17.9883L2.62789 8.57139H17.3721L15.8264 17.989Z" />
 <path id="star" d="M7.04894 0.92705C7.3483 0.00573921 8.6517 0.00573969 8.95106 0.92705L10.0206 4.21885C10.1545 4.63087 10.5385 4.90983 10.9717 4.90983H14.4329C15.4016 4.90983 15.8044 6.14945 15.0207 6.71885L12.2205 8.75329C11.87 9.00793 11.7234 9.4593 11.8572 9.87132L12.9268 13.1631C13.2261 14.0844 12.1717 14.8506 11.388 14.2812L8.58778 12.2467C8.2373 11.9921 7.7627 11.9921 7.41221 12.2467L4.61204 14.2812C3.82833 14.8506 2.77385 14.0844 3.0732 13.1631L4.14277 9.87132C4.27665 9.4593 4.12999 9.00793 3.7795 8.75329L0.979333 6.71885C0.195619 6.14945 0.598395 4.90983 1.56712 4.90983H5.02832C5.46154 4.90983 5.8455 4.63087 5.97937 4.21885L7.04894 0.92705Z"
          
        />
</svg>
